<svg xmlns="http://www.w3.org/2000/svg" width="420" height="40">
    <rect width="100%" height="100%" fill="#4CAF50" />
    <g fill="#3E8E41">
        <ellipse cx="10" cy="25" rx="2" ry="8" />
        <ellipse cx="30" cy="20" rx="2" ry="10" />
        <ellipse cx="50" cy="27" rx="2" ry="9" />
        <ellipse cx="70" cy="22" rx="2" ry="7" />
        <ellipse cx="90" cy="26" rx="2" ry="10" />
        <ellipse cx="110" cy="24" rx="2" ry="8" />
        <ellipse cx="130" cy="19" rx="2" ry="12" />
        <ellipse cx="150" cy="25" rx="2" ry="9" />
        <ellipse cx="170" cy="21" rx="2" ry="8" />
        <ellipse cx="190" cy="26" rx="2" ry="10" />
        <ellipse cx="210" cy="23" rx="2" ry="9" />
        <ellipse cx="230" cy="20" rx="2" ry="8" />
        <ellipse cx="250" cy="24" rx="2" ry="10" />
        <ellipse cx="270" cy="18" rx="2" ry="12" />
        <ellipse cx="290" cy="25" rx="2" ry="8" />
        <ellipse cx="310" cy="22" rx="2" ry="9" />
        <ellipse cx="330" cy="20" rx="2" ry="8" />
        <ellipse cx="350" cy="26" rx="2" ry="10" />
        <ellipse cx="370" cy="16" rx="2" ry="6" />
        <ellipse cx="390" cy="22" rx="2" ry="7" />
        <ellipse cx="410" cy="24" rx="2" ry="11" />
    </g>
</svg>